<?xml version="1.0" encoding="UTF-8" standalone="no"?>
<!-- Created with Inkscape (http://www.inkscape.org/) -->

<svg
   xmlns:dc="http://purl.org/dc/elements/1.1/"
   xmlns:cc="http://creativecommons.org/ns#"
   xmlns:rdf="http://www.w3.org/1999/02/22-rdf-syntax-ns#"
   xmlns:svg="http://www.w3.org/2000/svg"
   xmlns="http://www.w3.org/2000/svg"
   xmlns:sodipodi="http://sodipodi.sourceforge.net/DTD/sodipodi-0.dtd"
   xmlns:inkscape="http://www.inkscape.org/namespaces/inkscape"
   width="48"
   height="48"
   viewBox="0 0 12.7 12.7"
   version="1.1"
   id="svg8"
   sodipodi:docname="icons.svg"
   inkscape:export-filename="C:\GitHub\LinksPanel\src\24.png"
   inkscape:export-xdpi="48"
   inkscape:export-ydpi="48"
   inkscape:version="0.92.2 (5c3e80d, 2017-08-06)">
  <defs
     id="defs2" />
  <sodipodi:namedview
     id="base"
     pagecolor="#ffffff"
     bordercolor="#666666"
     borderopacity="1.0"
     inkscape:pageopacity="0.0"
     inkscape:pageshadow="2"
     inkscape:zoom="11.313708"
     inkscape:cx="29.561852"
     inkscape:cy="17.694244"
     inkscape:document-units="px"
     inkscape:current-layer="layer1"
     showgrid="false"
     units="px"
     inkscape:window-width="1680"
     inkscape:window-height="997"
     inkscape:window-x="1912"
     inkscape:window-y="22"
     inkscape:window-maximized="1" />
  <metadata
     id="metadata5">
    <rdf:RDF>
      <cc:Work
         rdf:about="">
        <dc:format>image/svg+xml</dc:format>
        <dc:type
           rdf:resource="http://purl.org/dc/dcmitype/StillImage" />
        <dc:title></dc:title>
      </cc:Work>
    </rdf:RDF>
  </metadata>
  <g
     inkscape:label="Layer 1"
     inkscape:groupmode="layer"
     id="layer1"
     transform="translate(0,-284.29999)">
    <g
       id="g913"
       transform="translate(-18.56855,-7.1093694)">
      <rect
         ry="3.3074605"
         y="292.05551"
         x="-13.163024"
         height="6.7485557"
         width="10.022607"
         id="rect822-2"
         style="opacity:1;fill:none;fill-opacity:1;stroke:#000000;stroke-width:1.85208333;stroke-miterlimit:4;stroke-dasharray:none;stroke-opacity:1" />
      <rect
         style="opacity:1;fill:none;fill-opacity:1;stroke:#000000;stroke-width:1.85208333;stroke-miterlimit:4;stroke-dasharray:none;stroke-opacity:1"
         id="rect869"
         width="10.022607"
         height="6.7485557"
         x="-17.506153"
         y="292.05551"
         ry="3.3074605" />
      <path
         sodipodi:nodetypes="cccsc"
         inkscape:connector-curvature="0"
         id="path873"
         d="m -13.368459,293.00201 c 0.800996,-1.31945 1.917587,-1.86769 3.6054094,-1.86769 l -1.3163774,-0.44181 c -1.181444,-0.96055 -4.167261,2.07898 -3.708891,2.90569 0.04581,0.0826 1.419859,-0.59619 1.419859,-0.59619 z"
         style="fill:#ffffff;stroke:none;stroke-width:0.26458332px;stroke-linecap:butt;stroke-linejoin:miter;stroke-opacity:1" />
      <path
         sodipodi:nodetypes="cccccc"
         inkscape:connector-curvature="0"
         id="path877"
         d="m -10.66714,297.87898 c -0.425223,0 -2.691629,10e-4 -2.691629,10e-4 l -1.004326,-0.9275 3.912053,-0.0141 0.372639,0.83368 c -0.177532,0.0674 -0.384628,0.0845 -0.588737,0.10673 z"
         style="fill:#ffffff;stroke:none;stroke-width:0.26458332px;stroke-linecap:butt;stroke-linejoin:miter;stroke-opacity:1" />
      <path
         sodipodi:nodetypes="cccccc"
         inkscape:connector-curvature="0"
         id="path877-3"
         d="m -9.9768666,292.9821 c 0.425223,0 2.6916282,-10e-4 2.6916282,-10e-4 l 1.004326,0.9275 -3.9120516,0.0141 -0.37264,-0.83368 c 0.177532,-0.0674 0.384629,-0.0845 0.5887374,-0.10673 z"
         style="fill:#ffffff;stroke:none;stroke-width:0.26458332px;stroke-linecap:butt;stroke-linejoin:miter;stroke-opacity:1" />
      <path
         style="fill:#ffffff;stroke:none;stroke-width:0.26458332px;stroke-linecap:butt;stroke-linejoin:miter;stroke-opacity:1"
         d="m -7.2662287,297.83422 c -0.8886938,1.3253 -2.2594311,1.89353 -3.6023093,1.89353 l 1.3132773,0.41597 c 1.238455,0.87681 4.1802474,-2.12768 3.7088912,-2.90569 -0.048956,-0.0808 -1.4198592,0.59619 -1.4198592,0.59619 z"
         id="path905"
         inkscape:connector-curvature="0"
         sodipodi:nodetypes="cccsc" />
    </g>
    <path
       style="color:#000000;font-style:normal;font-variant:normal;font-weight:normal;font-stretch:normal;font-size:medium;line-height:normal;font-family:sans-serif;font-variant-ligatures:normal;font-variant-position:normal;font-variant-caps:normal;font-variant-numeric:normal;font-variant-alternates:normal;font-feature-settings:normal;text-indent:0;text-align:start;text-decoration:none;text-decoration-line:none;text-decoration-style:solid;text-decoration-color:#000000;letter-spacing:normal;word-spacing:normal;text-transform:none;writing-mode:lr-tb;direction:ltr;text-orientation:mixed;dominant-baseline:auto;baseline-shift:baseline;text-anchor:start;white-space:normal;shape-padding:0;clip-rule:nonzero;display:inline;overflow:visible;visibility:visible;opacity:1;isolation:auto;mix-blend-mode:normal;color-interpolation:sRGB;color-interpolation-filters:linearRGB;solid-color:#000000;solid-opacity:1;vector-effect:none;fill:#000000;fill-opacity:1;fill-rule:nonzero;stroke:none;stroke-width:1.54650784;stroke-linecap:butt;stroke-linejoin:miter;stroke-miterlimit:4;stroke-dasharray:none;stroke-dashoffset:0;stroke-opacity:1;color-rendering:auto;image-rendering:auto;shape-rendering:auto;text-rendering:auto;enable-background:accumulate"
       d="m 6.6509165,287.42595 0.4943508,-0.49435 c 0.3942107,-0.39421 0.8999671,-0.59107 1.4058705,-0.59107 0.5059037,0 1.0121437,0.19686 1.4063592,0.59107 l 0.079624,0.0796 c 0.673708,0.67371 0.769763,1.67279 0.292116,2.44146 0.205409,0.48755 0.261387,1.37227 0.124076,2.14056 l 0.676557,-0.67656 c 1.375334,-1.37533 1.376297,-3.62385 9.75e-4,-4.99919 l -0.07962,-0.0791 c -0.68767,-0.68767 -1.5932542,-1.03148 -2.4991085,-1.0312 -0.9058556,2.9e-4 -1.8119305,0.34421 -2.4995972,1.03169 l -1.9637249,1.96422 0.00879,-0.004 c -0.1149741,0.11497 -0.2191331,0.22983 -0.3165407,0.34487 -0.7422183,0.87662 -0.9765401,1.76795 -0.713683,2.86597 l 0.00245,-0.002 c 0.1262343,0.67606 0.4490245,1.32195 0.9696501,1.84257 l 0.079624,0.0796 c 0.3014688,0.30147 0.6456285,0.53438 1.0126372,0.70342 l 1.218288,-1.2274 c -0.4129452,-0.0576 -0.8126158,-0.24695 -1.1367134,-0.57105 l -0.079624,-0.0796 c -0.641329,-0.64133 -0.7577634,-1.57707 -0.3556198,-2.32863 0,0 0.04588,-0.086 0.1069789,-0.18123 -0.00509,0.007 -0.00971,0.0147 -0.014654,0.022 0.00446,-0.007 0.00815,-0.0138 0.0127,-0.0205 6.753e-4,-4.5e-4 0.00128,-10e-4 0.00195,-10e-4 0.054645,-0.0777 0.1162071,-0.15353 0.1773213,-0.22959 0.249989,-0.24998 1.5703096,-1.57176 1.5817267,-1.58319 m 1.8748212,6.09244 c 0.7892103,-0.78921 1.2615027,-1.9273 1.0116603,-3.22696 -0.1295965,-0.6666 -0.4498513,-1.30275 -0.9637884,-1.81669 l -0.079622,-0.0796 c -0.301265,-0.30126 -0.6450538,-0.5341 -1.0116603,-0.70293 l -1.2158485,1.22464 c 0.4126128,0.0578 0.8099548,0.24819 1.1337824,0.57202 l 0.079623,0.0796 c 0.6411654,0.64117 0.7588599,1.57714 0.3570855,2.32863 h 5.002e-4 c -5.002e-4,0 -0.1128527,0.18416 -0.1128527,0.18416 -0.053489,0.0765 -0.111326,0.15182 -0.1714596,0.22666 -0.2510691,0.25107 -1.5885653,1.59003 -1.5885653,1.59003 h -0.00195 l -0.4943505,0.49435 c -0.7884372,0.78844 -2.0237995,0.78843 -2.8122299,0 l -0.079627,-0.0796 C 1.8950708,293.64554 1.7993184,292.6451 2.2789432,291.87616 2.0644793,291.40394 1.9961519,290.54073 2.1152995,289.77712 l -0.6384548,0.63846 c -1.37534009,1.37534 -1.37680169,3.62336 -0.00147,4.9987 l 0.079624,0.0796 c 1.3753401,1.37534 3.6233654,1.374 4.9987054,-9.7e-4 l 1.9690985,-1.9691 M 2.1152954,289.7771 c -1.20982383,4.5944 -0.6049119,2.2972 0,0 z m 0.1636437,2.09904 c -1.31891963,3.19504 -0.6594598,1.59752 0,0 z m 2.8527749,1.75709 c -3.2207696,2.02365 -1.6103849,1.01182 0,0 z"
       id="rect929"
       inkscape:connector-curvature="0"
       sodipodi:nodetypes="ccscccccccsccccccssccccccccccccccscccccccccccccccscscccccccc" />
  </g>
</svg>
