<?xml version="1.0" encoding="UTF-8" standalone="no"?>
<!-- Created with Inkscape (http://www.inkscape.org/) -->

<svg
   xmlns:dc="http://purl.org/dc/elements/1.1/"
   xmlns:cc="http://creativecommons.org/ns#"
   xmlns:rdf="http://www.w3.org/1999/02/22-rdf-syntax-ns#"
   xmlns:svg="http://www.w3.org/2000/svg"
   xmlns="http://www.w3.org/2000/svg"
   xmlns:sodipodi="http://sodipodi.sourceforge.net/DTD/sodipodi-0.dtd"
   xmlns:inkscape="http://www.inkscape.org/namespaces/inkscape"
   width="48"
   height="48"
   viewBox="0 0 12.7 12.7"
   version="1.1"
   id="svg8"
   sodipodi:docname="icons.svg"
   inkscape:export-filename="C:\GitHub\LinksPanel\src\24.png"
   inkscape:export-xdpi="48"
   inkscape:export-ydpi="48"
   inkscape:version="0.92.2 (5c3e80d, 2017-08-06)">
  <defs
     id="defs2" />
  <sodipodi:namedview
     id="base"
     pagecolor="#ffffff"
     bordercolor="#666666"
     borderopacity="1.0"
     inkscape:pageopacity="0.0"
     inkscape:pageshadow="2"
     inkscape:zoom="2.8284271"
     inkscape:cx="-20.25025"
     inkscape:cy="-8.6793257"
     inkscape:document-units="px"
     inkscape:current-layer="layer1"
     showgrid="false"
     units="px"
     inkscape:window-width="1920"
     inkscape:window-height="1027"
     inkscape:window-x="-8"
     inkscape:window-y="115"
     inkscape:window-maximized="1" />
  <metadata
     id="metadata5">
    <rdf:RDF>
      <cc:Work
         rdf:about="">
        <dc:format>image/svg+xml</dc:format>
        <dc:type
           rdf:resource="http://purl.org/dc/dcmitype/StillImage" />
        <dc:title></dc:title>
      </cc:Work>
    </rdf:RDF>
  </metadata>
  <g
     inkscape:label="Layer 1"
     inkscape:groupmode="layer"
     id="layer1"
     transform="translate(0,-284.29999)">
    <g
       id="g913"
       transform="translate(-18.56855,-7.1093694)">
      <rect
         ry="3.3074605"
         y="292.05551"
         x="-13.163024"
         height="6.7485557"
         width="10.022607"
         id="rect822-2"
         style="opacity:1;fill:none;fill-opacity:1;stroke:#000000;stroke-width:1.85208333;stroke-miterlimit:4;stroke-dasharray:none;stroke-opacity:1" />
      <rect
         style="opacity:1;fill:none;fill-opacity:1;stroke:#000000;stroke-width:1.85208333;stroke-miterlimit:4;stroke-dasharray:none;stroke-opacity:1"
         id="rect869"
         width="10.022607"
         height="6.7485557"
         x="-17.506153"
         y="292.05551"
         ry="3.3074605" />
      <path
         sodipodi:nodetypes="cccsc"
         inkscape:connector-curvature="0"
         id="path873"
         d="m -13.368459,293.00201 c 0.800996,-1.31945 1.917587,-1.86769 3.6054094,-1.86769 l -1.3163774,-0.44181 c -1.181444,-0.96055 -4.167261,2.07898 -3.708891,2.90569 0.04581,0.0826 1.419859,-0.59619 1.419859,-0.59619 z"
         style="fill:#ffffff;stroke:none;stroke-width:0.26458332px;stroke-linecap:butt;stroke-linejoin:miter;stroke-opacity:1" />
      <path
         sodipodi:nodetypes="cccccc"
         inkscape:connector-curvature="0"
         id="path877"
         d="m -10.66714,297.87898 c -0.425223,0 -2.691629,10e-4 -2.691629,10e-4 l -1.004326,-0.9275 3.912053,-0.0141 0.372639,0.83368 c -0.177532,0.0674 -0.384628,0.0845 -0.588737,0.10673 z"
         style="fill:#ffffff;stroke:none;stroke-width:0.26458332px;stroke-linecap:butt;stroke-linejoin:miter;stroke-opacity:1" />
      <path
         sodipodi:nodetypes="cccccc"
         inkscape:connector-curvature="0"
         id="path877-3"
         d="m -9.9768666,292.9821 c 0.425223,0 2.6916282,-10e-4 2.6916282,-10e-4 l 1.004326,0.9275 -3.9120516,0.0141 -0.37264,-0.83368 c 0.177532,-0.0674 0.384629,-0.0845 0.5887374,-0.10673 z"
         style="fill:#ffffff;stroke:none;stroke-width:0.26458332px;stroke-linecap:butt;stroke-linejoin:miter;stroke-opacity:1" />
      <path
         style="fill:#ffffff;stroke:none;stroke-width:0.26458332px;stroke-linecap:butt;stroke-linejoin:miter;stroke-opacity:1"
         d="m -7.2662287,297.83422 c -0.8886938,1.3253 -2.2594311,1.89353 -3.6023093,1.89353 l 1.3132773,0.41597 c 1.238455,0.87681 4.1802474,-2.12768 3.7088912,-2.90569 -0.048956,-0.0808 -1.4198592,0.59619 -1.4198592,0.59619 z"
         id="path905"
         inkscape:connector-curvature="0"
         sodipodi:nodetypes="cccsc" />
    </g>
    <g
       transform="matrix(0.62461811,-0.62461811,0.62461811,0.62461811,-171.73269,99.671083)"
       id="g941">
      <rect
         style="opacity:1;fill:none;fill-opacity:1;stroke:#000000;stroke-width:1.85208333;stroke-miterlimit:4;stroke-dasharray:none;stroke-opacity:1"
         id="rect929"
         width="10.022607"
         height="6.7485557"
         x="-13.163024"
         y="292.05551"
         ry="3.3074605" />
      <rect
         ry="3.3074605"
         y="292.05551"
         x="-17.506153"
         height="6.7485557"
         width="10.022607"
         id="rect931"
         style="opacity:1;fill:none;fill-opacity:1;stroke:#000000;stroke-width:1.85208333;stroke-miterlimit:4;stroke-dasharray:none;stroke-opacity:1" />
      <path
         style="fill:#ffffff;stroke:none;stroke-width:0.26458332px;stroke-linecap:butt;stroke-linejoin:miter;stroke-opacity:1"
         d="m -13.368459,293.00201 c 0.800996,-1.31945 1.917587,-1.86769 3.6054094,-1.86769 l -1.3163774,-0.44181 c -1.181444,-0.96055 -4.167261,2.07898 -3.708891,2.90569 0.04581,0.0826 1.419859,-0.59619 1.419859,-0.59619 z"
         id="path933"
         inkscape:connector-curvature="0"
         sodipodi:nodetypes="cccsc" />
      <path
         style="fill:#ffffff;stroke:none;stroke-width:0.26458332px;stroke-linecap:butt;stroke-linejoin:miter;stroke-opacity:1"
         d="m -10.66714,297.87898 c -0.425223,0 -2.691629,10e-4 -2.691629,10e-4 l -1.004326,-0.9275 3.912053,-0.0141 0.372639,0.83368 c -0.177532,0.0674 -0.384628,0.0845 -0.588737,0.10673 z"
         id="path935"
         inkscape:connector-curvature="0"
         sodipodi:nodetypes="cccccc" />
      <path
         style="fill:#ffffff;stroke:none;stroke-width:0.26458332px;stroke-linecap:butt;stroke-linejoin:miter;stroke-opacity:1"
         d="m -9.9768666,292.9821 c 0.425223,0 2.6916282,-10e-4 2.6916282,-10e-4 l 1.004326,0.9275 -3.9120516,0.0141 -0.37264,-0.83368 c 0.177532,-0.0674 0.384629,-0.0845 0.5887374,-0.10673 z"
         id="path937"
         inkscape:connector-curvature="0"
         sodipodi:nodetypes="cccccc" />
      <path
         sodipodi:nodetypes="cccsc"
         inkscape:connector-curvature="0"
         id="path939"
         d="m -7.2662287,297.83422 c -0.8886938,1.3253 -2.2594311,1.89353 -3.6023093,1.89353 l 1.3132773,0.41597 c 1.238455,0.87681 4.1802474,-2.12768 3.7088912,-2.90569 -0.048956,-0.0808 -1.4198592,0.59619 -1.4198592,0.59619 z"
         style="fill:#ffffff;stroke:none;stroke-width:0.26458332px;stroke-linecap:butt;stroke-linejoin:miter;stroke-opacity:1" />
    </g>
  </g>
</svg>
